<svg xmlns="http://www.w3.org/2000/svg" width="74.257" height="71.569" viewBox="0 0 74.257 71.569">
  <g id="Layer_2" data-name="Layer 2" transform="translate(0 0)">
    <g id="Layer_1" data-name="Layer 1" transform="translate(0 0)">
      <path id="Path_722" data-name="Path 722" d="M75.363,2.574A9.544,9.544,0,0,0,68.767,0a10.514,10.514,0,0,0-7.416,3.081l-.862.868-.868-.874A10.52,10.52,0,0,0,52.212,0a9.544,9.544,0,0,0-6.6,2.574A9.851,9.851,0,0,0,45.4,16.718L60.471,31.79,75.544,16.718a9.851,9.851,0,0,0-.181-14.144Z" transform="translate(-16.882 0)" fill="#fff"/>
      <path id="Path_723" data-name="Path 723" d="M73.288,63.931c-2.321-1.574-5.052-1.127-7.47.271S49.5,77.5,49.5,77.5H35.824a1.5,1.5,0,0,1-1.326-1.35,1.356,1.356,0,0,1,1.326-1.326h8.368c2.93,0,6.21-1.911,6.21-5.3,0-3.617-3.28-5.3-6.21-5.3H38.121a12.324,12.324,0,0,1-5.691-.971,15.675,15.675,0,0,0-7.174-1.7,15.313,15.313,0,0,0-10.979,4.492L0,80.107l15.9,15.9,5.3-5.3H48.051a10.912,10.912,0,0,0,7.235-2.755l18.177-20.39a2.321,2.321,0,0,0-.175-3.635Z" transform="translate(0 -24.441)" fill="#fff"/>
    </g>
  </g>
</svg>
