<svg id="noun_Alarm_Clock_892185" data-name="noun_Alarm Clock_892185" xmlns="http://www.w3.org/2000/svg" width="69.36" height="69.36" viewBox="0 0 69.36 69.36">
  <g id="Group_238" data-name="Group 238">
    <path id="Path_160" data-name="Path 160" d="M41.68,959.362a34.477,34.477,0,0,1,14.92,3.377,15.048,15.048,0,0,1,5.62-2.193,7.608,7.608,0,0,1,6.25,2.142l4.562,4.562a7.947,7.947,0,0,1,1.714,8.216c-.586,1.313-1.263,2.605-1.789,3.629A34.673,34.673,0,1,1,7,994.042a34.473,34.473,0,0,1,3.377-14.92,19.133,19.133,0,0,1-1.789-3.7,7.94,7.94,0,0,1,1.714-8.166l4.562-4.562a7.625,7.625,0,0,1,6.3-2.117c2.046.157,4.014,1.392,5.57,2.193,5.074-1.99,10.4-3.363,14.946-3.4Zm2.42,4.94v3.2a2.42,2.42,0,1,1-4.839,0v-3.2a29.743,29.743,0,0,0-16.937,7.007l2.243,2.268A2.424,2.424,0,0,1,21.139,977l-2.218-2.243A29.646,29.646,0,0,0,11.94,991.7h3.377a2.423,2.423,0,1,1-.252,4.839H11.94a29.7,29.7,0,0,0,7.007,16.861l2.193-2.193a2.378,2.378,0,0,1,3.238-.2,2.607,2.607,0,0,1,.19,3.628l-2.167,2.193a29.731,29.731,0,0,0,16.861,6.956v-3.05a2.42,2.42,0,1,1,4.839,0v3.05a29.731,29.731,0,0,0,16.861-6.956l-2.167-2.193a2.562,2.562,0,0,1,.255-3.679,2.644,2.644,0,0,1,3.173.251l2.193,2.193a29.7,29.7,0,0,0,7.007-16.861H68.295a2.42,2.42,0,1,1,0-4.839H71.42a29.646,29.646,0,0,0-6.981-16.937L62.221,977a2.424,2.424,0,0,1-3.428-3.428l2.243-2.268A29.742,29.742,0,0,0,44.1,964.3Zm-2.243,8.771a2.5,2.5,0,0,1,2.243,2.319c.236,5.789.5,11.577.756,17.365,2.816,3.085,5.464,6.326,8.317,9.376a2.42,2.42,0,0,1-3.4,3.4c-3.278-2.964-6.6-5.885-9.9-8.821a3.555,3.555,0,0,1-1.411-2.772c.226-6.185.611-12.365.807-18.55A2.508,2.508,0,0,1,41.856,973.073Z" transform="translate(-7 -959.362)" fill="#fff"/>
  </g>
</svg>
