<svg xmlns="http://www.w3.org/2000/svg" width="58.973" height="69.783" viewBox="0 0 58.973 69.783">
  <g id="Group_633" data-name="Group 633" transform="translate(-117.79 -6)">
    <path id="Path_728" data-name="Path 728" d="M56.289,64.8a2.705,2.705,0,0,0-3.6,1.248,7.908,7.908,0,0,1-7.122,4.405,7.828,7.828,0,0,1-7.122-4.405A2.693,2.693,0,1,0,33.6,68.4a13.3,13.3,0,0,0,11.968,7.416A13.511,13.511,0,0,0,57.537,68.4,2.772,2.772,0,0,0,56.289,64.8Z" transform="translate(101.745 -12.955)" fill="#fff"/>
    <path id="Path_729" data-name="Path 729" d="M65.268,45.066a2.411,2.411,0,0,0-3.01,1.689,2.587,2.587,0,0,1-4.993,0,2.441,2.441,0,1,0-4.7,1.322,7.551,7.551,0,0,0,14.538,0A2.625,2.625,0,0,0,65.268,45.066Z" transform="translate(96.657 -7.757)" fill="#fff"/>
    <path id="Path_730" data-name="Path 730" d="M42.357,48.076a2.441,2.441,0,1,0-4.7-1.322,2.587,2.587,0,0,1-4.993,0,2.441,2.441,0,1,0-4.7,1.322,7.454,7.454,0,0,0,14.391,0Z" transform="translate(103.195 -7.757)" fill="#fff"/>
    <path id="Path_731" data-name="Path 731" d="M68.757,35.31a92.817,92.817,0,0,0-1.836-14.318c1.4-3.891,1.689-10.573-7.563-17.915a2.893,2.893,0,0,0-3.745.147C49.006,9.391,36.377,7.849,25.877,7.335,11.853,6.6,10.752,14.017,11.853,19.744A94.774,94.774,0,0,0,9.8,35.31a4.265,4.265,0,0,0,1.175,3.084v8.884A24.99,24.99,0,0,0,35.936,72.242h6.682A24.99,24.99,0,0,0,67.582,47.278V38.393A4.15,4.15,0,0,0,68.757,35.31ZM42.618,66.882H35.936a19.648,19.648,0,0,1-19.6-19.6v-8.37a4.065,4.065,0,0,0,1.762-3.3,39.646,39.646,0,0,1,1.4-10.573c3.745,1.689,11.014,2.864,19.457,2.864,8.884,0,16.52-1.322,20.045-3.157A41.251,41.251,0,0,1,60.46,35.6a4.065,4.065,0,0,0,1.762,3.3v8.444A19.632,19.632,0,0,1,42.618,66.882Z" transform="translate(108 3.541)" fill="#fff"/>
  </g>
</svg>
