<svg xmlns="http://www.w3.org/2000/svg" width="51.167" height="98.44" viewBox="0 0 51.167 98.44">
  <g id="noun_Old_Woman_Selfie_1918288" data-name="noun_Old Woman Selfie_1918288" transform="translate(0.725 3.079)">
    <g id="Group_240" data-name="Group 240" transform="translate(0 0)">
      <path id="Path_171" data-name="Path 171" d="M6.595,10.484a4.533,4.533,0,0,1,4.051,6.559,31.14,31.14,0,0,0-1.709,4.014,2.12,2.12,0,0,0,1.454-1.118L17.248,6.28A2.132,2.132,0,0,0,16.3,3.417L9.945.227a2.133,2.133,0,0,0-2.863.95L.225,14.837a2.124,2.124,0,0,0,.432,2.485A42.907,42.907,0,0,1,2.539,12.99,4.513,4.513,0,0,1,6.595,10.484Zm7.821-5.816a.889.889,0,1,1-.183,1.244A.889.889,0,0,1,14.415,4.668Z" transform="translate(-0.725 -3.08)" fill="#fff"/>
      <path id="Path_172" data-name="Path 172" d="M58.461,24.943a10.109,10.109,0,0,1,3.938,2.8c.069-.135.133-.274.19-.418a4.707,4.707,0,1,0-8.758-3.453c-.056.142-.1.285-.144.428A10.048,10.048,0,0,1,58.461,24.943Z" transform="translate(-30.715 -11.951)" fill="#fff"/>
      <path id="Path_173" data-name="Path 173" d="M25,182.435c0,2.271.054,4.74.18,7.416a4.28,4.28,0,0,0,4.271,4.078c.068,0,.135,0,.2-.005a4.28,4.28,0,0,0,4.074-4.475c-.12-2.543-.17-4.878-.171-7.014,0-3.395.13-6.277.316-8.679a45.037,45.037,0,0,1-8.467-1.467C25.166,175.078,25,178.448,25,182.435Z" transform="translate(-14.302 -98.568)" fill="#fff"/>
      <path id="Path_174" data-name="Path 174" d="M66.486,182.436c0,2.135-.051,4.471-.17,7.014a4.279,4.279,0,0,0,4.074,4.474c.068,0,.136,0,.2,0a4.278,4.278,0,0,0,4.27-4.079c.126-2.674.18-5.143.18-7.414,0-3.987-.167-7.356-.406-10.146a45.081,45.081,0,0,1-8.467,1.467C66.357,176.16,66.486,179.041,66.486,182.436Z" transform="translate(-37.857 -98.569)" fill="#fff"/>
      <path id="Path_175" data-name="Path 175" d="M38.714,47.5a9.2,9.2,0,1,0-2.343-12.795A9.2,9.2,0,0,0,38.714,47.5Zm-.963-5.22s6.026,3.281,9.7,1.961C45.846,47.06,39.534,47.988,37.752,42.282Z" transform="translate(-19.876 -17.584)" fill="#fff"/>
      <path id="Path_176" data-name="Path 176" d="M48.236,69.374c-1.669-15.331-6.614-23.861-11.848-28.462a22.044,22.044,0,0,0-2.964-2.205A10.043,10.043,0,0,1,14.434,37.14c-.169,0-.339.007-.509.006a17.075,17.075,0,0,1-4.943-.616,7.2,7.2,0,0,1-1.362-.573,3.581,3.581,0,0,1-1.292-1.141v0a3.807,3.807,0,0,1-.552-2.175A16.441,16.441,0,0,1,7.9,25.69,2.781,2.781,0,1,0,2.925,23.2C1.11,26.841.223,29.893.213,32.639a9.371,9.371,0,0,0,1.465,5.229v0a8.77,8.77,0,0,0,1.94,2.086,11.552,11.552,0,0,0,3.7,1.884,19.445,19.445,0,0,0,4.1.766l-5.9,40.087s.056.033.165.093c1.071.586,7.379,3.758,18.377,3.758,10.95,0,17.249-3.144,18.363-3.75.119-.065.18-.1.18-.1L41.393,75.2a1.4,1.4,0,0,0,1-1.341,2.671,2.671,0,0,1,.77-1.874,2.779,2.779,0,0,0,2.4,1.384q.139,0,.279-.014a2.767,2.767,0,0,0,1.6-.721,2.668,2.668,0,0,1,.3,1.224v32.387a1.408,1.408,0,1,0,2.816,0V73.856A5.478,5.478,0,0,0,48.236,69.374ZM40.651,70.61,37.521,51.281C39.7,55.26,41.6,60.909,42.588,68.964A5.515,5.515,0,0,0,40.651,70.61Z" transform="translate(-0.122 -12.394)" fill="#fff"/>
      <circle id="Ellipse_6" data-name="Ellipse 6" cx="1.5" cy="1.5" r="1.5" transform="translate(12.82 0.726)" fill="#00f494"/>
    </g>
  </g>
</svg>
