<svg xmlns="http://www.w3.org/2000/svg" width="69.86" height="67.664" viewBox="0 0 69.86 67.664">
  <g id="noun_Save_Money_776848" data-name="noun_Save Money_776848" transform="translate(0 0.421)">
    <path id="Path_161" data-name="Path 161" d="M67.494,32.894a4.234,4.234,0,0,0-2.288.128,25.94,25.94,0,0,0-8.419-13.095,9.438,9.438,0,0,1,1.5-7.079A1.9,1.9,0,0,0,56.388,10a13,13,0,0,0-9.117,4.89,25.819,25.819,0,0,0-5.539-.927.528.528,0,0,0-.1,0A23.032,23.032,0,0,1,6.981,40.813a.606.606,0,0,0-.043.249,25.869,25.869,0,0,0,8.625,18.113,8.276,8.276,0,0,1,2.851,6.159v3.051a1.7,1.7,0,0,0,1.7,1.7H30.426a1.7,1.7,0,0,0,1.7-1.7v-2.63h8.2v2.616a1.7,1.7,0,0,0,1.7,1.7H52.368a1.7,1.7,0,0,0,1.7-1.7V66.048a8.426,8.426,0,0,1,2.894-6.416A25.926,25.926,0,0,0,65.227,46.58a4.277,4.277,0,0,0,2.288.121,4.405,4.405,0,0,0,3.343-4.348v-5.09a4.42,4.42,0,0,0-3.365-4.37Zm-12.7.449a1.061,1.061,0,1,1,0,.014ZM19.947,40.735A18.947,18.947,0,1,0,1,21.78,18.947,18.947,0,0,0,19.947,40.735Z" transform="translate(-1 -2.84)" fill="#fff"/>
    <text id="_" data-name="€" transform="translate(18 28.579)" fill="#00e38a" font-size="27" font-family="SegoeUI, Segoe UI"><tspan x="-7.277" y="0">€</tspan></text>
  </g>
</svg>
