<svg id="logo-icon" xmlns="http://www.w3.org/2000/svg" width="45.665" height="56.072" viewBox="0 0 45.665 56.072">
  <path id="Path_94" data-name="Path 94" d="M338.852,267.68l-7.584-17.45-10.955,15.556h.008a10.7,10.7,0,1,0,18.53,1.893Zm-10.6,11.067a7.036,7.036,0,1,1,7.81-6.217A7.007,7.007,0,0,1,328.254,278.747Z" transform="translate(-294.087 -229.438)" fill="#282828"/>
  <path id="Path_95" data-name="Path 95" d="M196.013,173.184l7.584,17.45,10.955-15.556h-.008a10.7,10.7,0,1,0-18.53-1.893Zm10.6-11.067a7.036,7.036,0,1,1-7.81,6.217A7.007,7.007,0,0,1,206.611,162.118Z" transform="translate(-195.113 -155.511)" fill="#282828"/>
  <path id="Path_96" data-name="Path 96" d="M274.914,154.6a15.687,15.687,0,0,0-5.719-9.989l-2.1,2.888a12.2,12.2,0,0,1,3.862,6.039l-2.061.593a10.165,10.165,0,0,0-3.065-4.9l-2.157,2.963a6.575,6.575,0,0,1,1.968,3.844c.477,3.067-.922,6.939-4.051,11.2l-3.877,5.27c-4.7,6.4-6.631,12.522-5.743,18.185a15.674,15.674,0,0,0,5.742,9.981l2.144-2.893a12.111,12.111,0,0,1-3.915-6.042l2.06-.6a10.156,10.156,0,0,0,3.133,4.918l2.166-2.923c-.586-.468-5.506-4.871,1.986-15.082l3.878-5.27C273.86,166.387,275.795,160.266,274.914,154.6ZM258.176,183.91l-2.058-.6a27.755,27.755,0,0,1,4.095-8.073l1.752,1.239A25.628,25.628,0,0,0,258.176,183.91Zm8.486-13.845-1.752-1.239a26.7,26.7,0,0,0,3.564-6.721l2.032.689A28.871,28.871,0,0,1,266.662,170.065Z" transform="translate(-240.607 -144.61)" fill="#282828"/>
</svg>
