<svg id="logo-txt" xmlns="http://www.w3.org/2000/svg" width="95.846" height="14.8" viewBox="0 0 95.846 14.8">
  <path class="logo-color1" id="Path_90" data-name="Path 90" d="M470.006,262.07l1.861-2.227a6.567,6.567,0,0,0,4.273,1.738c1.287,0,2.064-.511,2.064-1.35v-.042c0-.8-.491-1.205-2.883-1.819-2.881-.736-4.742-1.533-4.742-4.375v-.04c0-2.6,2.086-4.315,5.009-4.315a8.281,8.281,0,0,1,5.315,1.82l-1.635,2.372a6.721,6.721,0,0,0-3.722-1.41c-1.205,0-1.839.551-1.839,1.247v.04c0,.94.612,1.247,3.086,1.881,2.9.758,4.539,1.8,4.539,4.293v.042c0,2.842-2.167,4.436-5.253,4.436A9.111,9.111,0,0,1,470.006,262.07Z" transform="translate(-470.006 -249.6)" fill="#282828"/>
  <path class="logo-color1" id="Path_91" data-name="Path 91" d="M610.072,250.68h5.846c3.414,0,5.478,2.024,5.478,4.947v.041c0,3.311-2.575,5.029-5.785,5.029H613.22v4.293h-3.148Zm5.641,7.216a2.217,2.217,0,0,0,2.5-2.166v-.042c0-1.41-.982-2.167-2.557-2.167H613.22V257.9Z" transform="translate(-582.499 -250.435)" fill="#282828"/>
  <path class="logo-color1" id="Path_92" data-name="Path 92" d="M744.844,256.878v-.04a7.608,7.608,0,0,1,15.21-.042v.042a7.608,7.608,0,0,1-15.21.04Zm11.919,0v-.04a4.348,4.348,0,0,0-4.335-4.5,4.279,4.279,0,0,0-4.293,4.456v.042a4.348,4.348,0,0,0,4.335,4.5A4.279,4.279,0,0,0,756.763,256.878Z" transform="translate(-690.74 -249.437)" fill="#282828"/>
  <path class="logo-color1" id="Path_93" data-name="Path 93" d="M901.009,253.583h-4.353v-2.9h11.857v2.9h-4.354v11.408h-3.15Z" transform="translate(-812.667 -250.435)" fill="#282828"/>
</svg>
