<svg id="Group_2" data-name="Group 2" xmlns="http://www.w3.org/2000/svg" width="149.96" height="56.072" viewBox="0 0 149.96 56.072">
  <g id="Group_136" data-name="Group 136" transform="translate(54.115 20.636)">
    <path id="Path_90" data-name="Path 90" d="M470.006,262.07l1.861-2.227a6.567,6.567,0,0,0,4.273,1.738c1.287,0,2.064-.511,2.064-1.35v-.042c0-.8-.491-1.205-2.883-1.819-2.881-.736-4.742-1.533-4.742-4.375v-.04c0-2.6,2.086-4.315,5.009-4.315a8.281,8.281,0,0,1,5.315,1.82l-1.635,2.372a6.721,6.721,0,0,0-3.722-1.41c-1.205,0-1.839.551-1.839,1.247v.04c0,.94.612,1.247,3.086,1.881,2.9.758,4.539,1.8,4.539,4.293v.042c0,2.842-2.167,4.436-5.253,4.436A9.111,9.111,0,0,1,470.006,262.07Z" transform="translate(-470.006 -249.6)" fill="#282828"/>
    <path id="Path_91" data-name="Path 91" d="M610.072,250.68h5.846c3.414,0,5.478,2.024,5.478,4.947v.041c0,3.311-2.575,5.029-5.785,5.029H613.22v4.293h-3.148Zm5.641,7.216a2.217,2.217,0,0,0,2.5-2.166v-.042c0-1.41-.982-2.167-2.557-2.167H613.22V257.9Z" transform="translate(-582.499 -250.435)" fill="#282828"/>
    <path id="Path_92" data-name="Path 92" d="M744.844,256.878v-.04a7.608,7.608,0,0,1,15.21-.042v.042a7.608,7.608,0,0,1-15.21.04Zm11.919,0v-.04a4.348,4.348,0,0,0-4.335-4.5,4.279,4.279,0,0,0-4.293,4.456v.042a4.348,4.348,0,0,0,4.335,4.5A4.279,4.279,0,0,0,756.763,256.878Z" transform="translate(-690.74 -249.437)" fill="#282828"/>
    <path id="Path_93" data-name="Path 93" d="M901.009,253.583h-4.353v-2.9h11.857v2.9h-4.354v11.408h-3.15Z" transform="translate(-812.667 -250.435)" fill="#282828"/>
  </g>
  <g id="Group_137" data-name="Group 137">
    <path id="Path_94" data-name="Path 94" d="M338.852,267.68l-7.584-17.45-10.955,15.556h.008a10.7,10.7,0,1,0,18.53,1.893Zm-10.6,11.067a7.036,7.036,0,1,1,7.81-6.217A7.007,7.007,0,0,1,328.254,278.747Z" transform="translate(-294.087 -229.438)" fill="#282828"/>
    <path id="Path_95" data-name="Path 95" d="M196.013,173.184l7.584,17.45,10.955-15.556h-.008a10.7,10.7,0,1,0-18.53-1.893Zm10.6-11.067a7.036,7.036,0,1,1-7.81,6.217A7.007,7.007,0,0,1,206.611,162.118Z" transform="translate(-195.113 -155.511)" fill="#282828"/>
    <path id="Path_96" data-name="Path 96" d="M274.914,154.6a15.687,15.687,0,0,0-5.719-9.989l-2.1,2.888a12.2,12.2,0,0,1,3.862,6.039l-2.061.593a10.165,10.165,0,0,0-3.065-4.9l-2.157,2.963a6.575,6.575,0,0,1,1.968,3.844c.477,3.067-.922,6.939-4.051,11.2l-3.877,5.27c-4.7,6.4-6.631,12.522-5.743,18.185a15.674,15.674,0,0,0,5.742,9.981l2.144-2.893a12.111,12.111,0,0,1-3.915-6.042l2.06-.6a10.156,10.156,0,0,0,3.133,4.918l2.166-2.923c-.586-.468-5.506-4.871,1.986-15.082l3.878-5.27C273.86,166.387,275.795,160.266,274.914,154.6ZM258.176,183.91l-2.058-.6a27.755,27.755,0,0,1,4.095-8.073l1.752,1.239A25.628,25.628,0,0,0,258.176,183.91Zm8.486-13.845-1.752-1.239a26.7,26.7,0,0,0,3.564-6.721l2.032.689A28.871,28.871,0,0,1,266.662,170.065Z" transform="translate(-240.607 -144.61)" fill="#282828"/>
  </g>
</svg>
